<svg width="24" height="24" viewBox="0 0 24 24" fill="none" xmlns="http://www.w3.org/2000/svg">
<path d="M12 24C18.6274 24 24 18.6274 24 12C24 5.37258 18.6274 0 12 0C5.37258 0 0 5.37258 0 12C0 18.6274 5.37258 24 12 24Z" fill="#FFCC4D"/>
<path d="M7.01011 15.748C7.04011 15.8673 7.78878 18.6673 12.0001 18.6673C16.2121 18.6673 16.9601 15.8673 16.9901 15.748C17.0268 15.6033 16.9614 15.4533 16.8321 15.3787C16.7021 15.3047 16.5394 15.3267 16.4321 15.43C16.4194 15.4427 15.1294 16.6673 12.0001 16.6673C8.87078 16.6673 7.58011 15.4427 7.56811 15.4307C7.50411 15.3673 7.41878 15.334 7.33344 15.334C7.27744 15.334 7.22078 15.348 7.16944 15.3767C7.03878 15.4513 6.97344 15.6027 7.01011 15.748Z" fill="#664500"/>
<path d="M7.9987 11.3327C8.91917 11.3327 9.66536 10.288 9.66536 8.99935C9.66536 7.71068 8.91917 6.66602 7.9987 6.66602C7.07822 6.66602 6.33203 7.71068 6.33203 8.99935C6.33203 10.288 7.07822 11.3327 7.9987 11.3327Z" fill="#664500"/>
<path d="M15.9987 11.3327C16.9192 11.3327 17.6654 10.288 17.6654 8.99935C17.6654 7.71068 16.9192 6.66602 15.9987 6.66602C15.0782 6.66602 14.332 7.71068 14.332 8.99935C14.332 10.288 15.0782 11.3327 15.9987 11.3327Z" fill="#664500"/>
</svg>
