<svg width="144" height="44" viewBox="0 0 144 44" fill="none" xmlns="http://www.w3.org/2000/svg">
<mask id="mask0_8617_175593" style="mask-type:alpha" maskUnits="userSpaceOnUse" x="0" y="0" width="44" height="44">
<circle cx="21.5327" cy="22.0005" r="21.5327" fill="#006666"/>
</mask>
<g mask="url(#mask0_8617_175593)">
<circle cx="21.5327" cy="22.0005" r="21.1963" fill="#006666" stroke="white" stroke-width="0.672897"/>
<path d="M30.8855 20.9822C30.3569 16.6102 26.9524 13.1684 22.6374 12.6437C22.2659 12.6007 21.8923 12.5792 21.5183 12.5791C17.7049 12.585 14.2713 14.9208 12.8212 18.4954C11.371 22.07 12.1906 26.1782 14.897 28.901C16.3362 30.2979 17.1604 32.2229 17.1839 34.2425C17.1839 34.8517 17.6778 35.3456 18.287 35.3456H24.7701C25.3824 35.3456 25.8789 34.8491 25.8789 34.2368C25.8854 32.2555 26.6807 30.3607 28.0845 28.9818C30.2048 26.9084 31.2419 23.9463 30.8855 20.9822Z" fill="url(#paint0_linear_8617_175593)"/>
<path d="M17.1884 38.0186C17.168 39.7634 17.4998 40.7042 18.0967 43.0075C18.2783 43.7084 18.9076 44.2051 19.6317 44.2051H23.4447C24.1688 44.2051 24.7983 43.7085 24.9784 43.0072C25.5714 40.697 25.889 39.7364 25.8833 38.0243C25.8833 37.4119 25.3869 36.9155 24.7745 36.9155H18.2915C17.6822 36.9155 17.1884 37.4094 17.1884 38.0186Z" fill="#00EAD9"/>
<path fill-rule="evenodd" clip-rule="evenodd" d="M21.5326 9.21662C22.2758 9.21662 22.8784 8.61384 22.8784 7.87029V4.50453C22.8784 3.76098 22.2758 3.1582 21.5326 3.1582C20.7893 3.1582 20.1867 3.76098 20.1867 4.50453V7.87029C20.1867 8.61384 20.7893 9.21662 21.5326 9.21662ZM10.1748 12.548C10.7074 13.0568 11.5456 13.0568 12.0782 12.548C12.3306 12.2955 12.4725 11.953 12.4725 11.596C12.4725 11.2389 12.3306 10.8964 12.0782 10.6439L9.69899 8.26421C9.44669 8.01168 9.10438 7.8698 8.74751 7.8698C8.39063 7.8698 8.04832 8.01168 7.79595 8.26421C7.54351 8.5166 7.40169 8.85904 7.40169 9.21613C7.40169 9.57322 7.54351 9.91558 7.79595 10.168L10.1748 12.548ZM7.4017 20.6608C8.14497 20.6608 8.74752 21.2635 8.74752 22.0071C8.74752 22.7506 8.14497 23.3534 7.4017 23.3534H4.03723C3.29425 23.3527 2.69214 22.7503 2.69141 22.0071C2.69214 21.2638 3.29425 20.6615 4.03723 20.6608H7.4017ZM39.0279 20.6608H35.6634C34.9201 20.6608 34.3176 21.2635 34.3176 22.0071C34.3176 22.7506 34.9201 23.3534 35.6634 23.3534H39.0279C39.7711 23.3534 40.3737 22.7506 40.3737 22.0071C40.3737 21.2635 39.7711 20.6608 39.0279 20.6608ZM35.2695 10.1679L32.8907 12.548C32.3582 13.0568 31.5199 13.0568 30.9872 12.5479C30.7348 12.2954 30.593 11.9529 30.593 11.5958C30.593 11.2388 30.7348 10.8963 30.9872 10.6438L33.3664 8.26411C33.7063 7.92403 34.2018 7.79121 34.6662 7.91571C35.1306 8.04021 35.4933 8.40304 35.6178 8.86763C35.7422 9.33221 35.6094 9.82786 35.2695 10.1679Z" fill="url(#paint1_linear_8617_175593)"/>
</g>
<path d="M60.5881 25.8496C60.5881 27.4322 60.2167 28.595 59.4738 29.3379C58.7309 30.0807 57.5843 30.4522 56.0339 30.4522C54.4997 30.4522 52.8686 30.3714 51.1406 30.2099V26.9397C52.4003 27.0204 53.6923 27.0608 55.0165 27.0608C55.388 27.0608 55.6786 26.9558 55.8886 26.7459C56.1147 26.5198 56.2277 26.221 56.2277 25.8496V16.6443H53.0786V13.2529H60.5881V25.8496Z" fill="white"/>
<path d="M76.333 26.5763C76.333 27.7875 75.9857 28.7403 75.2913 29.4348C74.613 30.113 73.6683 30.4522 72.4571 30.4522H66.8855C65.6743 30.4522 64.7214 30.113 64.027 29.4348C63.3487 28.7403 63.0096 27.7875 63.0096 26.5763V21.0047C63.0096 19.7935 63.3487 18.8487 64.027 18.1705C64.7214 17.476 65.6743 17.1288 66.8855 17.1288H72.4571C73.6683 17.1288 74.613 17.476 75.2913 18.1705C75.9857 18.8487 76.333 19.7935 76.333 21.0047V26.5763ZM72.0937 21.3681C72.0937 20.7221 71.7707 20.3991 71.1247 20.3991H68.2178C67.5718 20.3991 67.2488 20.7221 67.2488 21.3681V26.2129C67.2488 26.8589 67.5718 27.1819 68.2178 27.1819H71.1247C71.7707 27.1819 72.0937 26.8589 72.0937 26.2129V21.3681Z" fill="white"/>
<path d="M81.6651 34.5703C80.8092 34.5703 79.7595 34.4896 78.516 34.3281V31.1789H80.6962C81.3098 31.1789 81.7055 31.0093 81.8832 30.6702C82.0769 30.3311 82.0446 29.8547 81.7863 29.241L76.8203 17.3711H81.3018L84.3298 25.6073L86.8734 17.3711H91.3549L86.51 30.6944C86.0417 31.9702 85.4361 32.9311 84.6932 33.5771C83.9503 34.2393 82.9409 34.5703 81.6651 34.5703Z" fill="white"/>
<path d="M101.052 30.2099C99.4856 30.3714 97.9514 30.4522 96.4495 30.4522C95.3514 30.4522 94.4712 30.1211 93.8091 29.459C93.1469 28.7969 92.8159 27.9167 92.8159 26.8185V20.6413C92.8159 20.6413 92.8603 18.6361 92.8603 17.2903C92.8603 16.6451 92.9614 15.9689 93.0667 15.4398C93.183 14.8557 93.7087 14.4641 94.3043 14.4641H97.0551V17.3711H100.083V20.6413H97.0551V26.2129C97.0551 26.4552 97.1359 26.657 97.2974 26.8185C97.4589 26.98 97.6607 27.0608 97.903 27.0608H101.052V30.2099Z" fill="white"/>
<path d="M107.488 20.1569C106.842 20.1569 106.519 20.4798 106.519 21.1258V21.7853C106.519 22.1569 106.82 22.4582 107.192 22.4582H109.964C110.336 22.4582 110.637 22.1569 110.637 21.7853V21.1258C110.637 20.4798 110.314 20.1569 109.668 20.1569H107.488ZM114.392 29.9677C111.275 30.2907 108.449 30.4522 105.913 30.4522C104.815 30.4522 103.935 30.1211 103.273 29.459C102.611 28.7969 102.279 27.9167 102.279 26.8185V21.0047C102.279 19.7935 102.619 18.8487 103.297 18.1705C103.991 17.476 104.944 17.1288 106.155 17.1288H111C112.211 17.1288 113.156 17.476 113.834 18.1705C114.529 18.8487 114.876 19.7935 114.876 21.0047V25.4862H106.519V26.4552C106.519 26.6974 106.599 26.8993 106.761 27.0608C106.922 27.2223 107.124 27.303 107.367 27.303C108.965 27.303 111.307 27.1819 114.392 26.9397V29.9677Z" fill="white"/>
<path d="M121.286 25.1228V30.2099H117.047V13.2529H121.286V21.8526H123.224L125.889 17.3711H130.37L126.737 23.5483L130.37 30.2099H125.889L123.103 25.1228H121.286Z" fill="white"/>
<path d="M136.659 27.0608C137.354 27.0608 138.124 26.9543 138.968 26.7413C139.325 26.6512 139.566 26.3239 139.566 25.9557C139.566 25.4957 139.193 25.1228 138.733 25.1228H136.053C135.811 25.1228 135.609 25.2036 135.448 25.3651C135.286 25.5266 135.206 25.7284 135.206 25.9707V26.2129C135.206 26.4552 135.286 26.657 135.448 26.8185C135.609 26.98 135.811 27.0608 136.053 27.0608H136.659ZM132.178 17.6133C135.133 17.2903 137.798 17.1288 140.172 17.1288C141.27 17.1288 142.15 17.4599 142.812 18.122C143.474 18.7841 143.805 19.6643 143.805 20.7625V30.2099H140.05L139.808 28.9987C139.049 29.4994 138.266 29.8708 137.458 30.113C136.667 30.3391 135.997 30.4522 135.448 30.4522H134.6C133.502 30.4522 132.622 30.1211 131.96 29.459C131.297 28.7969 130.966 27.9167 130.966 26.8185V25.7284C130.966 24.6303 131.297 23.7501 131.96 23.088C132.622 22.4259 133.502 22.0948 134.6 22.0948H139.566V21.1258C139.566 20.8836 139.485 20.6817 139.324 20.5202C139.162 20.3587 138.96 20.278 138.718 20.278C137.668 20.278 136.506 20.3264 135.23 20.4233C133.97 20.5202 132.953 20.5929 132.178 20.6413V17.6133Z" fill="white"/>
<path d="M60.5625 13.2529H61.2354C61.9787 13.2529 62.5812 13.8555 62.5812 14.5987V16.6174H60.5625V13.2529Z" fill="white"/>
<defs>
<linearGradient id="paint0_linear_8617_175593" x1="21.5339" y1="35.3456" x2="21.5339" y2="12.5791" gradientUnits="userSpaceOnUse">
<stop stop-color="#F49C19"/>
<stop offset="1" stop-color="#FFD003"/>
</linearGradient>
<linearGradient id="paint1_linear_8617_175593" x1="21.5326" y1="23.3535" x2="21.5326" y2="3.1582" gradientUnits="userSpaceOnUse">
<stop stop-color="#F49C19"/>
<stop offset="1" stop-color="#FFD003"/>
</linearGradient>
</defs>
</svg>
