<svg width="120" height="40" viewBox="0 0 120 40" fill="none" xmlns="http://www.w3.org/2000/svg">
<path d="M50.4766 26.1793C50.8329 26.1659 51.1034 26.1259 51.2881 26.0593C51.4729 25.9793 51.618 25.8193 51.7236 25.5793C51.8292 25.3393 51.882 24.9593 51.882 24.4393V16.7793C51.882 16.0326 51.9083 15.4326 51.9611 14.9793L50.4766 15.0393V13.4993H56.1575V14.8193C55.8012 14.8326 55.5307 14.8793 55.3459 14.9593C55.1612 15.0259 55.016 15.1793 54.9105 15.4193C54.8049 15.6593 54.7521 16.0393 54.7521 16.5593V24.2193C54.7521 24.9393 54.7257 25.5259 54.6729 25.9793H57.3254C58.1171 25.9659 58.7308 25.6859 59.1662 25.1393C59.6017 24.5793 59.8194 23.7659 59.8194 22.6993H61.1456L61.0269 27.4993H50.4766V26.1793Z" fill="#BDBDBD"/>
<path d="M66.9358 27.8193C65.9724 27.8193 65.1213 27.6059 64.3823 27.1793C63.6433 26.7393 63.0693 26.1193 62.6602 25.3193C62.2511 24.5193 62.0466 23.5859 62.0466 22.5193C62.0466 21.5859 62.2511 20.7126 62.6602 19.8993C63.0825 19.0726 63.6697 18.4126 64.4219 17.9193C65.1741 17.4259 66.0318 17.1793 66.9951 17.1793C68.2752 17.1793 69.3375 17.5593 70.182 18.3193C71.0398 19.0793 71.462 20.3459 71.4488 22.1193L64.9563 22.2393C64.9563 23.4126 65.1741 24.3393 65.6096 25.0193C66.0582 25.6993 66.7708 26.0393 67.7473 26.0393C68.2092 26.0393 68.7041 25.9193 69.2319 25.6793C69.7597 25.4393 70.2348 25.0593 70.6571 24.5393L71.5478 25.3793C70.4261 27.0059 68.8888 27.8193 66.9358 27.8193ZM68.7172 20.8393C68.6777 19.3326 68.1366 18.5793 67.0941 18.5793C66.5267 18.5793 66.0714 18.7859 65.7283 19.1993C65.3984 19.5993 65.1807 20.1459 65.0751 20.8393H68.7172Z" fill="#BDBDBD"/>
<path d="M75.3698 27.8193C74.5384 27.8193 73.8786 27.5726 73.3904 27.0793C72.9153 26.5726 72.6778 25.9326 72.6778 25.1593C72.6778 23.9859 73.2188 23.0993 74.3009 22.4993C75.383 21.8859 76.6828 21.5459 78.2004 21.4793V20.4393C78.2004 19.2259 77.7517 18.6193 76.8544 18.6193C76.2737 18.6193 75.7987 18.8059 75.4292 19.1793C75.5875 19.3659 75.6667 19.6193 75.6667 19.9393C75.6667 20.2593 75.5546 20.5459 75.3302 20.7993C75.1191 21.0526 74.8024 21.1793 74.3801 21.1793C73.9842 21.1793 73.6741 21.0526 73.4498 20.7993C73.2254 20.5326 73.1133 20.2059 73.1133 19.8193C73.1133 19.2993 73.298 18.8393 73.6675 18.4393C74.037 18.0393 74.5384 17.7326 75.1719 17.5193C75.8185 17.2926 76.5245 17.1793 77.2898 17.1793C79.7311 17.1793 80.9518 18.4526 80.9518 20.9993L80.932 24.2793C80.932 24.9193 80.9056 25.5059 80.8528 26.0393C81.2883 25.9993 81.7172 25.9793 82.1394 25.9793V27.4993H78.3983C78.3719 27.3259 78.3455 27.0193 78.3191 26.5793H78.2994C77.4944 27.4059 76.5179 27.8193 75.3698 27.8193ZM76.6168 25.8593C77.2107 25.8593 77.7319 25.6193 78.1806 25.1393V22.8993C77.402 22.9793 76.7554 23.1793 76.2408 23.4993C75.7393 23.8193 75.4886 24.2526 75.4886 24.7993C75.4886 25.1593 75.5941 25.4259 75.8053 25.5993C76.0296 25.7726 76.3001 25.8593 76.6168 25.8593Z" fill="#BDBDBD"/>
<path d="M83.2759 26.1993C83.7773 26.1993 84.0941 26.0593 84.226 25.7793C84.3712 25.4993 84.4438 25.0459 84.4438 24.4193V21.0593C84.4438 20.4593 84.4701 19.8926 84.5229 19.3593L83.1373 19.4193V17.8993C83.9687 17.8993 84.6417 17.8393 85.1563 17.7193C85.671 17.5993 86.0141 17.4593 86.1856 17.2993H87.1556C87.182 17.4993 87.2017 17.7593 87.2149 18.0793C87.2281 18.3993 87.2347 18.7126 87.2347 19.0193H87.2743C88.1717 17.7926 89.1218 17.1793 90.1247 17.1793C90.6262 17.1793 91.0352 17.3193 91.3519 17.5993C91.6818 17.8793 91.8468 18.2926 91.8468 18.8393C91.8468 19.1859 91.7346 19.5059 91.5103 19.7993C91.286 20.0926 90.9495 20.2393 90.5008 20.2393C90.1709 20.2393 89.874 20.1526 89.61 19.9793C89.3593 19.8059 89.2142 19.5059 89.1746 19.0793C88.8051 19.0793 88.4224 19.2993 88.0265 19.7393C87.6438 20.1659 87.3865 20.5926 87.2545 21.0193V24.2793C87.2545 24.9193 87.2281 25.5059 87.1754 26.0393C87.5976 25.9993 88.0265 25.9793 88.462 25.9793V27.4993H83.2759V26.1993Z" fill="#BDBDBD"/>
<path d="M92.7864 26.1993C93.2878 26.1993 93.6046 26.0593 93.7365 25.7793C93.8817 25.4993 93.9543 25.0459 93.9543 24.4193V21.0593C93.9543 20.4593 93.9807 19.8926 94.0334 19.3593L92.6478 19.4193V17.8993C93.4792 17.8993 94.1522 17.8393 94.6668 17.7193C95.1815 17.5993 95.5246 17.4593 95.6961 17.2993H96.6661C96.6661 17.3259 96.6925 17.6593 96.7452 18.2993H96.7848C97.1675 17.9926 97.636 17.7326 98.1902 17.5193C98.7577 17.2926 99.2393 17.1793 99.6352 17.1793C100.836 17.1793 101.694 17.5259 102.208 18.2193C102.723 18.9126 102.98 20.0393 102.98 21.5993V24.2793C102.98 24.9193 102.954 25.5059 102.901 26.0393C103.337 25.9993 103.766 25.9793 104.188 25.9793V27.4993H99.0018V26.1993C99.5032 26.1993 99.8265 26.0593 99.9717 25.7793C100.117 25.4993 100.189 25.0459 100.189 24.4193L100.17 21.5793C100.17 20.6993 100.044 20.0526 99.7936 19.6393C99.556 19.2259 99.1469 19.0193 98.5663 19.0193C98.2496 19.0193 97.9263 19.0926 97.5964 19.2393C97.2665 19.3726 96.9894 19.5459 96.765 19.7593V24.2793C96.765 24.9193 96.7386 25.5059 96.6859 26.0393C97.1081 25.9993 97.537 25.9793 97.9725 25.9793V27.4993H92.7864V26.1993Z" fill="#BDBDBD"/>
<path d="M108.161 15.5193C107.713 15.5193 107.343 15.3659 107.053 15.0593C106.763 14.7393 106.617 14.3526 106.617 13.8993C106.617 13.4459 106.769 13.0593 107.073 12.7393C107.376 12.4059 107.733 12.2393 108.142 12.2393C108.564 12.2393 108.914 12.3993 109.191 12.7193C109.481 13.0393 109.626 13.4326 109.626 13.8993C109.626 14.3659 109.488 14.7526 109.211 15.0593C108.947 15.3659 108.597 15.5193 108.161 15.5193ZM105.37 26.1993C105.872 26.1993 106.189 26.0593 106.321 25.7793C106.466 25.4993 106.538 25.0459 106.538 24.4193V21.0993C106.538 20.4726 106.565 19.8926 106.617 19.3593L105.232 19.4193V17.8993C106.063 17.8993 106.736 17.8393 107.251 17.7193C107.766 17.5993 108.109 17.4593 108.28 17.2993H109.349V24.2793C109.349 24.9193 109.323 25.5059 109.27 26.0393C109.692 25.9993 110.121 25.9793 110.557 25.9793V27.4993H105.37V26.1993Z" fill="#BDBDBD"/>
<path d="M116.399 27.8193C115.831 27.8193 115.277 27.7459 114.736 27.5993C114.195 27.4526 113.773 27.2659 113.469 27.0393H113.449L113.509 27.6393H112.004L111.925 24.1993H113.212C113.278 24.8126 113.595 25.3326 114.162 25.7593C114.743 26.1726 115.449 26.3793 116.28 26.3793C116.649 26.3793 116.966 26.2926 117.23 26.1193C117.507 25.9459 117.646 25.6993 117.646 25.3793C117.646 25.1393 117.56 24.9393 117.388 24.7793C117.217 24.6193 117.012 24.4859 116.775 24.3793C116.537 24.2726 116.062 24.0793 115.35 23.7993C114.505 23.4659 113.872 23.1926 113.449 22.9793C113.027 22.7659 112.644 22.4526 112.301 22.0393C111.971 21.6126 111.806 21.0659 111.806 20.3993C111.806 19.8526 111.938 19.3393 112.202 18.8593C112.479 18.3659 112.895 17.9659 113.449 17.6593C114.017 17.3393 114.71 17.1793 115.528 17.1793C115.91 17.1793 116.326 17.2393 116.775 17.3593C117.223 17.4793 117.6 17.6459 117.903 17.8593H117.923L117.903 17.2793H119.407V20.8193H118.121C118.002 20.1259 117.699 19.5793 117.21 19.1793C116.722 18.7793 116.122 18.5793 115.409 18.5793C115.04 18.5793 114.729 18.6659 114.479 18.8393C114.228 19.0126 114.103 19.2793 114.103 19.6393C114.103 20.0126 114.248 20.2926 114.538 20.4793C114.828 20.6526 115.317 20.8526 116.003 21.0793C116.082 21.0926 116.254 21.1459 116.518 21.2393C117.639 21.6393 118.497 22.1059 119.091 22.6393C119.698 23.1726 120.001 23.8726 120.001 24.7393C120.001 25.4059 119.83 25.9726 119.487 26.4393C119.157 26.8926 118.715 27.2393 118.16 27.4793C117.619 27.7059 117.032 27.8193 116.399 27.8193Z" fill="#BDBDBD"/>
<g clip-path="url(#clip0_8617_175594)">
<path d="M19.7977 40.0003C30.6583 40.0003 39.4626 31.1045 39.4626 20.131C39.4626 9.15751 30.6583 0.261719 19.7977 0.261719C8.93708 0.261719 0.132812 9.15751 0.132812 20.131C0.132812 31.1045 8.93708 40.0003 19.7977 40.0003Z" fill="#BDBDBD"/>
<path d="M19.7949 38.0873C29.6099 38.0873 37.5664 30.048 37.5664 20.1311C37.5664 10.2141 29.6099 2.1748 19.7949 2.1748C9.98001 2.1748 2.02344 10.2141 2.02344 20.1311C2.02344 30.048 9.98001 38.0873 19.7949 38.0873Z" fill="#BDBDBD"/>
<path d="M20.0318 35.3971C28.5257 35.3971 35.4113 28.4399 35.4113 19.8577C35.4113 11.2756 28.5257 4.31836 20.0318 4.31836C11.538 4.31836 4.65234 11.2756 4.65234 19.8577C4.65234 28.4399 11.538 35.3971 20.0318 35.3971Z" fill="#828282"/>
<path d="M20.032 28.8587C22.8563 28.8587 25.146 26.5453 25.146 23.6916C25.146 20.8378 22.8563 18.5244 20.032 18.5244C17.2076 18.5244 14.918 20.8378 14.918 23.6916C14.918 26.5453 17.2076 28.8587 20.032 28.8587Z" fill="#828282"/>
<path d="M22.3625 27.6885H17.2185C17.0612 27.6885 16.9336 27.8174 16.9336 27.9764V28.215C16.9336 28.3741 17.0612 28.503 17.2185 28.503H22.3625C22.5199 28.503 22.6475 28.3741 22.6475 28.215V27.9764C22.6475 27.8174 22.5199 27.6885 22.3625 27.6885Z" fill="white"/>
<path d="M22.2257 28.9541H17.3592C17.2018 28.9541 17.0742 29.083 17.0742 29.242V29.4807C17.0742 29.6397 17.2018 29.7686 17.3592 29.7686H22.2257C22.3831 29.7686 22.5106 29.6397 22.5106 29.4807V29.242C22.5106 29.083 22.3831 28.9541 22.2257 28.9541Z" fill="white"/>
<path d="M21.7261 30.2686H17.8568C17.7202 30.2686 17.6094 30.3805 17.6094 30.5186V30.7307C17.6094 30.8688 17.7202 30.9807 17.8568 30.9807H21.7261C21.8627 30.9807 21.9735 30.8688 21.9735 30.7307V30.5186C21.9735 30.3805 21.8627 30.2686 21.7261 30.2686Z" fill="white"/>
<path d="M21.1582 31.5029H18.425C18.3111 31.5029 18.2188 31.5962 18.2188 31.7113V31.8818C18.2188 31.9968 18.3111 32.0901 18.425 32.0901H21.1582C21.2721 32.0901 21.3644 31.9968 21.3644 31.8818V31.7113C21.3644 31.5962 21.2721 31.5029 21.1582 31.5029Z" fill="white"/>
<path d="M17.1667 26.9599C17.1658 26.0974 16.979 25.2455 16.6193 24.4634C16.1544 23.4785 15.6708 23.2247 14.8684 21.9442C14.4109 21.2973 14.052 20.5848 13.8036 19.8304C13.1325 17.4817 14.3623 15.3072 14.5947 14.9057C15.1388 13.9306 15.9395 13.1269 16.908 12.5835C17.7692 12.1132 18.7336 11.8696 19.7125 11.8751C20.6642 11.888 21.5995 12.1281 22.4419 12.5759C23.1836 12.9746 23.8381 13.5202 24.3663 14.1802C24.8945 14.8402 25.2857 15.601 25.5163 16.4172C25.8273 17.4487 25.8532 18.5464 25.5913 19.5917C25.3351 20.4773 24.9097 21.3035 24.3391 22.0238C24.0541 22.4026 23.9416 22.4784 23.6567 22.9027C23.266 23.4896 22.9546 24.1266 22.7306 24.7968C22.4974 25.4943 22.3598 26.2208 22.3219 26.9561L17.1667 26.9599Z" fill="white"/>
<path fill-rule="evenodd" clip-rule="evenodd" d="M20.0248 5.88281C20.3664 5.88281 20.6434 6.16263 20.6434 6.50781V10.0422C20.6434 10.3874 20.3664 10.6672 20.0248 10.6672C19.6832 10.6672 19.4062 10.3874 19.4062 10.0422V6.50781C19.4062 6.16263 19.6832 5.88281 20.0248 5.88281Z" fill="white"/>
<path fill-rule="evenodd" clip-rule="evenodd" d="M26.9062 17.1377C26.9062 16.7925 27.1832 16.5127 27.5248 16.5127H31.2103C31.552 16.5127 31.8289 16.7925 31.8289 17.1377C31.8289 17.4829 31.552 17.7627 31.2103 17.7627H27.5248C27.1832 17.7627 26.9062 17.4829 26.9062 17.1377Z" fill="white"/>
<path fill-rule="evenodd" clip-rule="evenodd" d="M7.97266 17.1377C7.97266 16.7925 8.2496 16.5127 8.59123 16.5127H12.2767C12.6184 16.5127 12.8953 16.7925 12.8953 17.1377C12.8953 17.4829 12.6184 17.7627 12.2767 17.7627H8.59123C8.2496 17.7627 7.97266 17.4829 7.97266 17.1377Z" fill="white"/>
<path fill-rule="evenodd" clip-rule="evenodd" d="M29.3425 9.09975C29.5842 9.34366 29.5845 9.73939 29.3431 9.98363L26.5836 12.7756C26.3422 13.0198 25.9505 13.0201 25.7088 12.7762C25.4671 12.5323 25.4668 12.1365 25.7082 11.8923L28.4677 9.10035C28.7091 8.85611 29.1007 8.85584 29.3425 9.09975Z" fill="white"/>
<path fill-rule="evenodd" clip-rule="evenodd" d="M10.9116 9.0395C11.1532 8.79543 11.5449 8.79543 11.7864 9.0395L14.6659 11.9489C14.9074 12.1929 14.9074 12.5887 14.6659 12.8328C14.4243 13.0768 14.0326 13.0768 13.7911 12.8328L10.9116 9.92339C10.6701 9.67931 10.6701 9.28358 10.9116 9.0395Z" fill="white"/>
</g>
<defs>
<clipPath id="clip0_8617_175594">
<rect width="39.5884" height="40" fill="white"/>
</clipPath>
</defs>
</svg>
