<svg width="201" height="200" viewBox="0 0 201 200" fill="none" xmlns="http://www.w3.org/2000/svg">
    <g opacity="0.3">
        <g clip-path="url(#clip0_8617_175544)">
            <path d="M135.315 69.3412C129.872 60.4528 121.266 54.3569 111.068 52.089C91.4963 47.8012 71.42 60.0598 66.2926 79.4454C64.0184 88.0295 64.8493 97.1941 68.641 105.224C74.0938 116.845 75.3228 130.028 72.0984 142.378C72.0984 142.378 69.7874 147.827 73.8217 148.881L99.1978 155.506C103.325 156.584 103.88 150.676 103.88 150.676C107.032 138.604 114.587 127.813 125.744 119.476C132.662 114.275 137.492 107.115 139.679 98.7382C142.308 88.6678 140.765 78.1989 135.315 69.3412ZM121.77 114.161C109.632 123.23 101.326 135.009 97.6675 148.264L78.697 143.311C82.0583 129.682 80.6421 115.2 74.6379 102.414C71.5341 95.7815 70.8408 88.2318 72.721 81.1567C76.9639 65.1587 93.5207 55.0405 109.673 58.567C118.099 60.4382 125.203 65.4839 129.674 72.8028C134.175 80.1297 135.444 88.7507 133.273 97.0657C131.433 103.987 127.488 109.898 121.77 114.161Z"
                  fill="black" style="mix-blend-mode:overlay"/>
            <path d="M157.627 52.697C156.694 51.1047 154.662 50.574 153.1 51.515L143.235 57.2948C141.643 58.2278 141.112 60.2604 142.053 61.8219C142.994 63.3834 145.019 63.9449 146.58 63.0039L156.445 57.2241C158.029 56.3219 158.56 54.2893 157.627 52.697Z"
                  fill="black" style="mix-blend-mode:overlay"/>
            <path d="M98.1847 159.911L72.5622 153.221C70.776 152.755 68.9814 153.832 68.5231 155.588C68.0567 157.374 69.1343 159.168 70.8897 159.627L96.5122 166.317C98.2984 166.783 100.093 165.706 100.551 163.95C101.01 162.195 99.9401 160.369 98.1847 159.911Z"
                  fill="black" style="mix-blend-mode:overlay"/>
            <path d="M90.1948 170.721L74.2731 166.564C72.4869 166.097 70.6924 167.175 70.2341 168.93C69.7677 170.717 70.8452 172.511 72.6006 172.969L88.5223 177.127C90.3085 177.593 92.103 176.515 92.5614 174.76C93.0197 173.005 91.9502 171.179 90.1948 170.721Z"
                  fill="black" style="mix-blend-mode:overlay"/>
            <path d="M115.378 41.6357C117.164 42.102 118.959 41.0245 119.417 39.2691L122.304 28.2132C122.77 26.427 121.693 24.6325 119.937 24.1742C118.182 23.7158 116.356 24.7853 115.898 26.5407L113.011 37.5966C112.545 39.3828 113.592 41.1693 115.378 41.6357Z"
                  fill="black" style="mix-blend-mode:overlay"/>
            <path d="M82.235 46.2367C83.8273 45.3037 84.358 43.2711 83.417 41.7096L77.6371 31.8449C76.7042 30.2526 74.6716 29.7219 73.1101 30.6629C71.5486 31.6039 70.9871 33.6284 71.9281 35.19L77.7079 45.0546C78.6489 46.6162 80.6815 47.1469 82.235 46.2367Z"
                  fill="black" style="mix-blend-mode:overlay"/>
            <path d="M161.72 95.4779L150.664 92.5911C148.878 92.1248 147.083 93.2023 146.625 94.9577C146.166 96.7131 147.236 98.5384 148.991 98.9968L160.047 101.883C161.833 102.35 163.628 101.272 164.086 99.5169C164.545 97.7615 163.475 95.9362 161.72 95.4779Z"
                  fill="black" style="mix-blend-mode:overlay"/>
            <path d="M59.6884 68.8392L48.6325 65.9525C46.8463 65.4861 45.0518 66.5636 44.5934 68.319C44.1351 70.0744 45.2046 71.8998 46.96 72.3581L58.0159 75.2448C59.802 75.7112 61.5966 74.6336 62.0549 72.8783C62.5133 71.1229 61.4746 69.3056 59.6884 68.8392Z"
                  fill="black" style="mix-blend-mode:overlay"/>
        </g>
    </g>
    <defs>
        <clipPath id="clip0_8617_175544">
            <rect width="162.963" height="162.963" fill="white"
                  transform="translate(41.9844 0.199219) rotate(14.6333)"/>
        </clipPath>
    </defs>
</svg>
