<svg width="58" height="46" viewBox="0 0 58 46" fill="none" xmlns="http://www.w3.org/2000/svg">
<path d="M43.9104 44.7707C36.7978 44.7707 31.0318 35.0236 31.0318 23.0001C31.0318 10.9765 36.7978 1.22949 43.9104 1.22949C51.0231 1.22949 56.7891 10.9765 56.7891 23.0001C56.7891 35.0236 51.0231 44.7707 43.9104 44.7707Z" fill="#F5F8FA"/>
<path d="M43.9069 46C51.8093 46 58 35.8974 58 23C58 10.1026 51.8093 0 43.9069 0C36.0045 0 29.8137 10.1026 29.8137 23C29.8137 35.8974 36.0045 46 43.9069 46ZM43.9069 2.45884C50.3389 2.45884 55.571 11.6729 55.571 23C55.571 34.3271 50.3389 43.5412 43.9069 43.5412C37.4748 43.5412 32.2428 34.3271 32.2428 23C32.2428 11.6729 37.4748 2.45884 43.9069 2.45884Z" fill="#E1E8ED"/>
<path d="M47.5267 31.1303C43.0907 31.1303 39.4947 27.4901 39.4947 22.9997C39.4947 18.5093 43.0907 14.8691 47.5267 14.8691C51.9626 14.8691 55.5586 18.5093 55.5586 22.9997C55.5586 27.4901 51.9626 31.1303 47.5267 31.1303Z" fill="#8899A6"/>
<path d="M47.5278 28.843C44.3395 28.843 41.7549 26.2266 41.7549 22.9991C41.7549 19.7717 44.3395 17.1553 47.5278 17.1553C50.7161 17.1553 53.3008 19.7717 53.3008 22.9991C53.3008 26.2266 50.7161 28.843 47.5278 28.843Z" fill="#292F33"/>
<path d="M45.39 21.1458C44.1147 21.1458 43.0809 20.0992 43.0809 18.8082C43.0809 17.5173 44.1147 16.4707 45.39 16.4707C46.6654 16.4707 47.6992 17.5173 47.6992 18.8082C47.6992 20.0992 46.6654 21.1458 45.39 21.1458Z" fill="#F5F8FA"/>
<path d="M14.0979 44.7707C6.98527 44.7707 1.21931 35.0236 1.21931 23.0001C1.21931 10.9765 6.98527 1.22949 14.0979 1.22949C21.2106 1.22949 26.9766 10.9765 26.9766 23.0001C26.9766 35.0236 21.2106 44.7707 14.0979 44.7707Z" fill="#F5F8FA"/>
<path d="M14.0944 46C21.9968 46 28.1875 35.8974 28.1875 23C28.1875 10.1026 21.9968 0 14.0944 0C6.19199 0 -0.000375748 10.1026 -0.000375748 23C-0.000375748 35.8974 6.19199 46 14.0944 46ZM14.0944 2.45884C20.5264 2.45884 25.7585 11.6746 25.7585 23C25.7585 34.3271 20.5264 43.5412 14.0944 43.5412C7.66235 43.5412 2.42863 34.3271 2.42863 23C2.42863 11.6729 7.66235 2.45884 14.0944 2.45884Z" fill="#E1E8ED"/>
<path d="M17.7259 31.1303C13.29 31.1303 9.69395 27.4901 9.69395 22.9997C9.69395 18.5093 13.29 14.8691 17.7259 14.8691C22.1618 14.8691 25.7578 18.5093 25.7578 22.9997C25.7578 27.4901 22.1618 31.1303 17.7259 31.1303Z" fill="#8899A6"/>
<path d="M17.7231 28.843C14.5348 28.843 11.9502 26.2266 11.9502 22.9991C11.9502 19.7717 14.5348 17.1553 17.7231 17.1553C20.9115 17.1553 23.4961 19.7717 23.4961 22.9991C23.4961 26.2266 20.9115 28.843 17.7231 28.843Z" fill="#292F33"/>
<path d="M15.5854 21.1458C14.31 21.1458 13.2762 20.0992 13.2762 18.8082C13.2762 17.5173 14.31 16.4707 15.5854 16.4707C16.8607 16.4707 17.8945 17.5173 17.8945 18.8082C17.8945 20.0992 16.8607 21.1458 15.5854 21.1458Z" fill="#F5F8FA"/>
</svg>
