<svg width="58" height="32" viewBox="0 0 58 32" fill="none" xmlns="http://www.w3.org/2000/svg">
<path d="M11.3211 4.8002C11.3211 5.6834 10.5966 6.4002 9.70381 6.4002H1.6173C0.724551 6.4002 0 5.6834 0 4.8002C0 3.917 0.724551 3.2002 1.6173 3.2002H9.70381C10.5966 3.2002 11.3211 3.917 11.3211 4.8002ZM8.08651 12.8002C8.08651 13.6834 7.36196 14.4002 6.46921 14.4002H1.6173C0.724551 14.4002 0 13.6834 0 12.8002C0 11.917 0.724551 11.2002 1.6173 11.2002H6.46921C7.36196 11.2002 8.08651 11.917 8.08651 12.8002ZM4.85191 20.8002C4.85191 21.685 4.12736 22.4002 3.2346 22.4002H1.6173C0.724551 22.4002 0 21.685 0 20.8002C0 19.9154 0.724551 19.2002 1.6173 19.2002H3.2346C4.12736 19.2002 4.85191 19.9154 4.85191 20.8002Z" fill="#55ACEE"/>
<path d="M52.2324 25.6C51.2199 29.1344 47.5018 32 43.9291 32H11.5831C8.01046 32 5.93547 29.1344 6.9479 25.6L12.4435 6.4C13.4559 2.8656 17.1725 0 20.7451 0H53.0911C56.6638 0 58.7404 2.8656 57.728 6.4L52.2324 25.6Z" fill="#CCD6DD"/>
<path d="M28.0379 13.8178L7.0906 28.7186C7.03561 28.7634 7.00326 28.8194 6.95312 28.8642C7.24262 29.7762 7.79089 30.533 8.55749 31.0786C8.61409 31.0418 8.67555 31.0258 8.73054 30.9826L29.6778 16.0802C30.4881 15.4546 30.7792 14.4434 30.3264 13.8178C29.8719 13.1922 28.8498 13.1922 28.0379 13.8178ZM50.3728 28.8642C50.3486 28.8194 50.347 28.7634 50.3179 28.7202L37.9067 13.8178C37.4522 13.1922 36.4301 13.1922 35.6166 13.8178C34.8063 14.4434 34.5168 15.4546 34.9697 16.0802L47.3841 30.9826C47.4132 31.0242 47.4665 31.0418 47.5005 31.0786C48.5776 30.5346 49.561 29.7762 50.3728 28.8642Z" fill="#99AAB5"/>
<path d="M57.7442 6.4C58.7566 2.8656 56.68 0 53.1074 0H20.7614C17.1887 0 13.4722 2.8656 12.4597 6.4L12.4258 6.5184L26.6677 20.0416C29.3056 22.576 32.7941 22.4016 35.9268 20.6352L57.3189 7.8928L57.7442 6.4Z" fill="#99AAB5"/>
<path d="M53.0959 0H20.7499C18.1977 0 15.5923 1.4736 13.9297 3.5968L28.8364 17.6672C30.0477 18.8176 32.7729 18.8336 34.7492 17.6672L57.8669 3.6384C57.4367 1.4928 55.6642 0 53.0959 0Z" fill="#E1E8ED"/>
</svg>
