<svg width="48" height="32" viewBox="0 0 48 32" fill="none" xmlns="http://www.w3.org/2000/svg">
<path opacity="0.7" d="M38.5534 28.0043C40.6478 22.1651 42.7421 16.3259 44.8365 10.4866C45.3829 8.96296 47.0849 6.26205 44.6313 7.23799C39.9396 9.10416 36.0098 11.6592 32.4865 15.5822C32.3541 15.7296 31.7796 16.3828 31.5828 16.1038C30.7046 14.8593 29.8735 13.5721 28.9885 12.3311C26.7014 9.1237 23.8223 6.36773 21.1125 3.5859C20.8423 3.30859 20.5584 3.03804 20.2686 2.7841C20.1637 2.69219 20.0251 2.34125 19.9738 2.48427C19.8378 2.86362 20.2433 4.47251 20.2296 4.96076C20.1834 6.61402 20.0339 8.27301 19.7956 9.92122C19.5777 11.4283 18.8833 12.8582 18.7345 14.3517C18.6215 15.4863 15.9821 13.6757 15.5633 13.5194C12.9014 12.5259 10.133 12.0541 7.25742 12.7725C6.8363 12.8778 2.46505 13.5587 2.50437 13.8269C2.60566 14.5176 3.84015 15.4488 4.21169 15.9366C5.25133 17.3016 6.44163 18.3689 7.65311 19.5557C9.35105 21.2191 10.7792 23.1422 12.4465 24.8382C13.2829 25.689 14.1184 26.5979 14.8169 27.5879C15.4604 28.4999 15.8253 27.8911 16.8918 27.9716C22.7752 28.4157 28.7244 28.3561 34.6519 27.631C35.9785 27.4687 37.4322 27.2755 38.7228 26.8311C39.2943 26.6343 39.8289 26.4653 40.3909 26.6668" stroke="#FFD003" stroke-width="4" stroke-linecap="round"/>
</svg>
