<svg width="41" height="65" viewBox="0 0 41 65" fill="none" xmlns="http://www.w3.org/2000/svg">
<path opacity="0.8" fill-rule="evenodd" clip-rule="evenodd" d="M39.224 1.67657C39.3021 0.85183 38.6968 0.119976 37.872 0.0419304C37.0473 -0.0361154 36.3154 0.569202 36.2374 1.39394C35.9119 4.83305 35.1404 8.20834 34.045 11.5348C33.6884 12.1102 33.3357 12.6884 32.9865 13.2687C32.9133 13.1303 32.7958 12.9595 32.6089 12.8061C32.3233 12.5717 31.9684 12.4551 31.6134 12.4642C31.0518 12.4786 30.7005 12.796 30.6377 12.8527L30.6338 12.8563C30.4503 13.0211 30.3381 13.205 30.3077 13.2548L30.305 13.2593C30.2539 13.3428 30.2068 13.4308 30.1654 13.5126C30.0812 13.6788 29.9824 13.8947 29.868 14.1603C29.5613 14.8726 29.2497 15.5794 28.9329 16.2812C26.1327 20.7041 23.4664 25.2101 20.8375 29.7207C17.4521 24.1351 14.0446 18.5611 10.5994 13.0084C9.90263 11.3447 9.31044 9.61249 8.85036 7.7685C8.64981 6.96472 7.83564 6.4757 7.03185 6.67624C6.63257 6.77587 6.31097 7.02691 6.11297 7.35287C5.88212 7.37208 5.65229 7.44522 5.44243 7.57665C4.74033 8.01637 4.52762 8.94199 4.96733 9.64409C5.95976 11.2287 6.94875 12.8154 7.93468 14.4039C8.14134 14.889 8.35581 15.368 8.57733 15.8416C7.0096 14.0144 5.4004 12.2229 3.73654 10.4939C3.29935 10.0395 2.93041 9.68242 2.6444 9.46656C2.56767 9.40866 2.46373 9.33534 2.34192 9.26922C2.258 9.22367 1.99196 9.08185 1.63058 9.063C1.42508 9.05229 1.11914 9.07804 0.803098 9.25308C0.469186 9.43802 0.254921 9.71717 0.138379 9.98822C-0.0525852 10.4324 0.0240741 10.8305 0.0422922 10.9251L0.0426429 10.9269C0.093947 11.1935 0.206184 11.4293 0.262051 11.5435C0.335842 11.6943 0.425519 11.8557 0.51902 12.0151C0.707227 12.3361 0.951592 12.7179 1.21595 13.1159C2.26546 14.6961 3.82492 16.8222 4.10988 17.1797C5.9948 19.5448 7.88342 21.9066 9.77173 24.2679L9.77304 24.2696L9.77306 24.2696C12.5227 27.7081 15.2717 31.1457 18.0076 34.5915C17.4452 35.5603 16.8829 36.528 16.3197 37.4938C11.989 44.9215 7.5986 52.2559 2.66629 59.2441C2.45388 59.545 2.09434 60.0223 1.71573 60.5249C1.50451 60.8053 1.28736 61.0936 1.08651 61.3635C0.830447 61.7076 0.572728 62.0594 0.435333 62.2771C0.407018 62.322 0.337415 62.4327 0.280227 62.562L0.279003 62.5647C0.264997 62.5951 0.153453 62.8371 0.145495 63.1539C0.141364 63.3184 0.155847 63.8266 0.584676 64.2564C1.05684 64.7296 1.62709 64.7176 1.86814 64.6824C2.10839 64.6473 2.28186 64.562 2.34611 64.5289C2.42852 64.4866 2.49184 64.4446 2.52911 64.4187C2.60382 64.3668 2.66307 64.3164 2.69667 64.287C2.76819 64.2245 2.8391 64.1546 2.90032 64.0924C4.03856 62.9359 5.12243 61.6615 6.16271 60.3366C6.29002 60.5202 6.45876 60.6763 6.66046 60.7893C6.51575 60.99 6.36787 61.1869 6.21618 61.3796C5.70371 62.0305 5.81593 62.9735 6.46683 63.486C7.11773 63.9985 8.06082 63.8863 8.57329 63.2354C9.34408 62.2564 10.0101 61.2127 10.6184 60.1695C10.6658 60.1136 10.7123 60.0577 10.7579 60.0019C11.5217 59.0675 12.3863 57.7369 13.1941 56.3994C14.608 54.0585 15.967 51.4944 16.4851 50.5169C16.5633 50.3694 16.6223 50.2581 16.6595 50.189C18.4194 46.9216 20.4083 43.6173 22.4722 40.2406C24.2396 42.4887 25.9986 44.7424 27.7458 47.004C29.145 49.3372 30.5434 51.6715 31.942 54.0062C32.2911 54.589 33.4805 56.5112 34.6851 58.2073C35.2805 59.0456 35.9187 59.8844 36.4814 60.4792C36.7488 60.7618 37.0833 61.0809 37.4486 61.2975C37.6276 61.4036 37.929 61.5555 38.3113 61.5919C38.7597 61.6346 39.287 61.5084 39.6959 61.0929C40.277 60.5024 40.2694 59.5527 39.6789 58.9716C39.5767 58.871 39.4637 58.7881 39.3438 58.7227C39.5791 58.2372 39.5438 57.6406 39.2011 57.1764C36.2573 53.1881 33.2598 49.2363 30.2281 45.3102C30.024 44.9698 29.8198 44.6294 29.6156 44.289C29.8273 44.2007 30.0405 44.0537 30.2205 43.8188C30.5519 43.3863 30.5352 42.9352 30.5291 42.8201C30.5203 42.6532 30.4854 42.5244 30.4687 42.4671C30.4136 42.2785 30.3249 42.1169 30.2986 42.069L30.2954 42.0633C29.6649 40.91 28.802 39.9206 27.9636 39.0591C27.5865 38.6717 27.1992 38.2952 26.832 37.9388C26.252 37.2897 25.6796 36.6145 25.1158 35.9203C26.862 33.055 28.6077 30.1389 30.2445 27.1769C31.7646 24.426 33.1999 21.6198 34.4639 18.7543C34.6072 18.4751 34.7501 18.1962 34.8928 17.9178L34.8929 17.9175C35.1975 17.3233 35.5009 16.7313 35.8044 16.1436C37.1066 13.6221 38.4213 11.1582 39.8835 8.8236L39.8845 8.82197C39.9039 8.791 39.9785 8.67196 40.036 8.50833C40.0605 8.43866 40.1351 8.21851 40.1197 7.92726C40.1012 7.57687 39.925 6.98621 39.3031 6.66838C38.9882 6.50747 38.6925 6.49284 38.4961 6.50873C38.8231 4.91598 39.0699 3.30546 39.224 1.67657ZM2.96556 63.8893C2.96538 63.8895 2.96708 63.8866 2.9711 63.8802C2.96772 63.886 2.96573 63.8892 2.96556 63.8893ZM2.93791 10.1837C2.93812 10.1838 2.94021 10.1884 2.94354 10.197C2.93937 10.1878 2.9377 10.1835 2.93791 10.1837Z" fill="#D22D25"/>
</svg>
