<svg width="42" height="56" viewBox="0 0 42 56" fill="none" xmlns="http://www.w3.org/2000/svg">
<path fill-rule="evenodd" clip-rule="evenodd" d="M40.7585 2.41366C41.2382 1.73827 41.0796 0.801863 40.4042 0.322137C39.7288 -0.15759 38.7924 0.00102851 38.3127 0.67642C33.7823 7.05461 30.9699 14.2564 28.8226 21.7226C28.0499 24.4094 27.31 27.0788 26.574 29.7348L26.5739 29.735C25.7557 32.6871 24.9422 35.6226 24.0931 38.547C23.1849 41.0801 22.3433 43.6419 21.6514 46.2711C21.3761 45.9527 21.0949 45.6449 20.8331 45.3589L20.8027 45.3257L20.8026 45.3256C20.544 45.0431 20.3069 44.784 20.0873 44.5311C15.2968 39.013 10.0352 33.3873 3.62671 29.5047C2.91818 29.0755 1.99581 29.3019 1.56654 30.0104C1.41975 30.2527 1.34963 30.52 1.34924 30.784C1.34456 30.7892 1.33991 30.7944 1.33529 30.7996C0.787753 31.4213 0.847869 32.3692 1.46956 32.9167C7.19867 37.9624 12.3017 44.0147 16.4625 50.5514C16.4866 50.5892 16.5494 50.6981 16.6417 50.8582L16.6422 50.859C17.006 51.4897 17.8269 52.9127 18.5412 53.9139C18.7821 54.2516 19.041 54.5874 19.3042 54.8776C19.5475 55.1459 19.8791 55.4711 20.2753 55.6888C20.6613 55.9008 21.5409 56.2147 22.362 55.5806C22.9902 55.0955 23.1318 54.3489 23.1819 53.9552C23.4307 52.0011 23.7966 50.0985 24.2506 48.225C25.208 45.325 26.0936 42.4111 26.9423 39.4919C27.6475 37.5284 28.4014 35.5576 29.1685 33.552C29.2902 33.2337 29.4123 32.9144 29.5346 32.5942C30.4952 30.0791 31.3929 27.5056 32.2909 24.9309C34.4936 18.616 36.6988 12.294 39.8404 6.8102C40.2522 6.09138 40.0033 5.17482 39.2844 4.76302C39.2621 4.75024 39.2396 4.73809 39.2169 4.72658C39.7072 3.94252 40.2204 3.17128 40.7585 2.41366ZM20.7495 50.2016C20.6756 50.0903 20.6126 49.9774 20.5592 49.874C20.2901 49.3531 19.889 48.8205 19.3914 48.2441C19.145 47.9587 18.8879 47.6769 18.6202 47.3845L18.5801 47.3407C18.3297 47.0671 18.0681 46.7814 17.8219 46.4978C17.0754 45.6379 16.3234 44.7827 15.563 43.938C16.7653 45.5688 17.9104 47.2392 18.9933 48.9405C19.1045 49.1152 19.2529 49.3725 19.4309 49.6813C19.7238 50.1894 20.0969 50.8367 20.5166 51.4837C20.5893 51.0541 20.6671 50.6268 20.7495 50.2016ZM20.1865 53.6773C20.1859 53.6763 20.1885 53.6625 20.1963 53.6391C20.1912 53.6667 20.1872 53.6784 20.1865 53.6773Z" fill="#10A376"/>
</svg>
