<svg width="470" height="540" viewBox="0 0 470 540" fill="none" xmlns="http://www.w3.org/2000/svg">
<g clip-path="url(#clip0_10329_237115)">
<path d="M230.756 228.932C225.346 220.096 216.79 214.036 206.653 211.782C187.197 207.519 167.239 219.705 162.142 238.976C159.881 247.51 160.707 256.62 164.477 264.602C169.897 276.155 171.119 289.26 167.914 301.537C167.914 301.537 165.616 306.954 169.627 308.001L194.853 314.588C198.955 315.659 199.507 309.786 199.507 309.786C202.641 297.785 210.151 287.058 221.242 278.77C228.119 273.6 232.92 266.482 235.094 258.155C237.708 248.144 236.174 237.737 230.756 228.932ZM217.291 273.487C205.225 282.502 196.968 294.211 193.332 307.388L174.473 302.465C177.815 288.916 176.407 274.519 170.438 261.81C167.353 255.216 166.663 247.711 168.532 240.677C172.75 224.774 189.209 214.716 205.266 218.221C213.642 220.081 220.704 225.097 225.149 232.373C229.624 239.656 230.885 248.227 228.727 256.492C226.898 263.373 222.976 269.249 217.291 273.487Z" fill="black" style="mix-blend-mode:overlay"/>
<path d="M252.937 212.387C252.009 210.804 249.989 210.276 248.436 211.212L238.63 216.957C237.047 217.885 236.52 219.905 237.455 221.458C238.391 223.01 240.403 223.568 241.955 222.633L251.762 216.887C253.337 215.99 253.864 213.97 252.937 212.387Z" fill="black" style="mix-blend-mode:overlay"/>
<path d="M193.846 318.968L168.375 312.318C166.6 311.854 164.816 312.925 164.36 314.67C163.896 316.446 164.968 318.23 166.713 318.685L192.184 325.336C193.959 325.8 195.743 324.728 196.199 322.983C196.655 321.238 195.591 319.424 193.846 318.968Z" fill="black" style="mix-blend-mode:overlay"/>
<path d="M185.902 329.712L170.075 325.579C168.299 325.116 166.515 326.187 166.059 327.932C165.596 329.708 166.667 331.491 168.412 331.947L184.239 336.08C186.015 336.543 187.799 335.472 188.255 333.727C188.71 331.982 187.647 330.168 185.902 329.712Z" fill="black" style="mix-blend-mode:overlay"/>
<path d="M210.937 201.391C212.712 201.854 214.496 200.783 214.952 199.038L217.822 188.048C218.285 186.272 217.214 184.488 215.469 184.032C213.724 183.577 211.909 184.64 211.454 186.385L208.584 197.376C208.121 199.151 209.161 200.927 210.937 201.391Z" fill="black" style="mix-blend-mode:overlay"/>
<path d="M177.989 205.965C179.572 205.037 180.1 203.017 179.165 201.464L173.419 191.658C172.491 190.075 170.471 189.548 168.919 190.483C167.366 191.418 166.808 193.431 167.743 194.983L173.489 204.79C174.425 206.342 176.445 206.87 177.989 205.965Z" fill="black" style="mix-blend-mode:overlay"/>
<path d="M257.006 254.914L246.016 252.044C244.24 251.581 242.456 252.652 242.001 254.397C241.545 256.142 242.608 257.956 244.353 258.412L255.344 261.282C257.119 261.745 258.903 260.674 259.359 258.929C259.815 257.184 258.751 255.369 257.006 254.914Z" fill="black" style="mix-blend-mode:overlay"/>
<path d="M155.577 228.433L144.586 225.564C142.811 225.1 141.027 226.171 140.571 227.916C140.115 229.661 141.179 231.476 142.924 231.932L153.914 234.801C155.69 235.265 157.474 234.194 157.929 232.449C158.385 230.704 157.352 228.897 155.577 228.433Z" fill="black" style="mix-blend-mode:overlay"/>
</g>
<g clip-path="url(#clip1_10329_237115)">
<path d="M360.675 18.6883H376.939C378.623 18.6883 379.988 17.3239 379.988 15.641C379.988 13.9581 378.623 12.5938 376.939 12.5938H360.675C358.99 12.5938 357.625 13.9581 357.625 15.641C357.625 17.3239 358.99 18.6883 360.675 18.6883Z" fill="black" style="mix-blend-mode:overlay"/>
<path d="M406.414 86.2428V85.5219C406.414 77.521 403.294 69.9952 397.75 64.3906C403.294 58.786 406.414 51.26 406.414 43.2593V42.5384C409.963 41.2807 412.513 37.894 412.513 33.9219C412.513 28.8817 408.409 24.7812 403.364 24.7812H392.183V9.14062C392.183 4.10048 388.079 0 383.034 0H317.977C312.932 0 308.828 4.10048 308.828 9.14062V33.9219C308.828 35.6046 310.194 36.9688 311.878 36.9688H321.026V82.6719C321.026 87.712 325.13 91.8125 330.175 91.8125H362.212C361.873 92.7662 361.687 93.7913 361.687 94.8594C361.687 99.8995 365.791 104 370.836 104H403.364C408.409 104 412.513 99.8995 412.513 94.8594C412.513 90.8873 409.963 87.5006 406.414 86.2428ZM321.026 30.875H314.927V9.14062C314.927 7.46058 316.295 6.09375 317.977 6.09375C319.658 6.09375 321.026 7.46058 321.026 9.14062V30.875ZM400.315 43.2593C400.315 50.5944 397.027 57.4293 391.294 62.0114C390.571 62.5897 390.15 63.465 390.15 64.3906C390.15 65.3163 390.571 66.1915 391.294 66.7698C397.027 71.3519 400.315 78.1869 400.315 85.5219V85.7188H373.885V85.5219C373.885 78.1869 377.173 71.3519 382.906 66.7698C383.63 66.1915 384.051 65.3163 384.051 64.3906C384.051 63.465 383.63 62.5897 382.906 62.0114C377.173 57.4293 373.885 50.5944 373.885 43.2593V43.0625H400.315V43.2593ZM403.364 30.875C405.046 30.875 406.414 32.2418 406.414 33.9219C406.414 35.6019 405.046 36.9688 403.364 36.9688H370.836C369.154 36.9688 367.786 35.6019 367.786 33.9219C367.786 32.2418 369.154 30.875 370.836 30.875H403.364ZM330.175 85.7188C328.494 85.7188 327.125 84.3519 327.125 82.6719V9.14062C327.125 8.0728 326.941 7.04702 326.603 6.09375H383.034C384.716 6.09375 386.084 7.46058 386.084 9.14062V24.7812H370.836C365.791 24.7812 361.687 28.8817 361.687 33.9219C361.687 37.894 364.237 41.2807 367.786 42.5384V43.2593C367.786 45.2623 367.982 47.2355 368.362 49.1562H360.671C358.986 49.1562 357.621 50.5204 357.621 52.2031C357.621 53.8858 358.986 55.25 360.671 55.25H370.263C371.2 57.409 372.391 59.4533 373.817 61.3438H360.671C358.986 61.3438 357.621 62.7079 357.621 64.3906C357.621 66.0733 358.986 67.4375 360.671 67.4375H373.817C372.391 69.328 371.2 71.3722 370.263 73.5312H360.671C358.986 73.5312 357.621 74.8954 357.621 76.5781C357.621 78.2608 358.986 79.625 360.671 79.625H368.362C367.982 81.5458 367.786 83.5189 367.786 85.5219V85.7188H330.175ZM403.364 97.9062H370.836C369.154 97.9062 367.786 96.5394 367.786 94.8594C367.786 93.1793 369.154 91.8125 370.836 91.8125H403.364C405.046 91.8125 406.414 93.1793 406.414 94.8594C406.414 96.5394 405.046 97.9062 403.364 97.9062Z" fill="black" style="mix-blend-mode:overlay"/>
<path d="M346.687 15.2735L340.218 21.7367L338.122 19.6431C336.961 18.483 335.07 18.3764 333.855 19.4804C332.559 20.6593 332.523 22.6668 333.749 23.891L338.061 28.1999C339.252 29.3898 341.183 29.3898 342.374 28.1999L350.999 19.5822C352.19 18.3925 352.19 16.4632 350.999 15.2733C349.808 14.0834 347.878 14.0834 346.687 15.2735Z" fill="black" style="mix-blend-mode:overlay"/>
<path d="M346.687 39.6465L340.218 46.1098L338.122 44.0161C336.961 42.8561 335.07 42.7495 333.855 43.8534C332.559 45.0324 332.523 47.0399 333.749 48.2641L338.061 52.573C339.252 53.7629 341.183 53.7629 342.374 52.573L350.999 43.9552C352.19 42.7655 352.19 40.8362 350.999 39.6463C349.808 38.4564 347.878 38.4564 346.687 39.6465Z" fill="black" style="mix-blend-mode:overlay"/>
<path d="M346.687 64.0215L340.218 70.4847L338.122 68.3911C336.961 67.2311 335.07 67.1245 333.855 68.2284C332.559 69.4074 332.523 71.4149 333.749 72.6391L338.061 76.948C339.252 78.1379 341.183 78.1379 342.374 76.948L350.999 68.3302C352.19 67.1405 352.19 65.2112 350.999 64.0213C349.808 62.8314 347.878 62.8314 346.687 64.0215Z" fill="black" style="mix-blend-mode:overlay"/>
</g>
<g clip-path="url(#clip2_10329_237115)">
<path d="M139.765 502.236L125.98 479.42L110.53 429.21C109.997 427.478 108.16 426.505 106.428 427.037L90.3607 431.973C84.4587 418.361 69.0916 411.046 54.5861 415.502C40.0806 419.957 31.4811 434.635 34.2523 449.208L18.185 454.144C16.4527 454.676 15.4804 456.511 16.0134 458.243L31.4642 508.454L32.8897 535.066C32.9435 536.075 33.4596 537.003 34.2883 537.581C35.117 538.16 36.1658 538.325 37.1317 538.028L137.921 507.068C138.887 506.771 139.662 506.046 140.022 505.102C140.383 504.159 140.288 503.101 139.765 502.236ZM56.5162 421.774C68.6229 418.055 81.5029 424.877 85.2278 436.982C87.6094 444.722 85.7921 452.953 80.3661 459C76.5491 463.254 73.8757 468.367 72.5405 473.848C68.3543 470.063 63.2674 467.334 57.7177 465.957C49.8286 464 43.697 458.211 41.3153 450.471C37.5904 438.366 44.4096 425.493 56.5162 421.774ZM23.2517 459.453L36.1858 455.479C39.8771 463.973 47.2696 470.125 56.1392 472.326C66.9829 475.016 71.9476 483.038 72.1812 483.265C73.002 484.415 74.4668 484.911 75.8172 484.496C77.1676 484.082 78.1004 482.849 78.1328 481.437C78.1642 481.284 77.731 471.766 85.2528 463.383C91.3526 456.584 94.011 447.353 92.2875 438.246L105.222 434.273L118.861 478.597L36.8911 503.777L23.2517 459.453ZM70.7941 520.823L70.4323 514.069L96.9002 505.938L100.399 511.729L70.7941 520.823ZM106.865 509.742L101.193 500.355C100.414 499.066 98.8584 498.472 97.4192 498.914L66.0531 508.549C64.6138 508.991 63.6606 510.356 63.7412 511.859L64.3279 522.809L39.2189 530.522L38.1336 510.26L121.479 484.658L131.974 502.03L106.865 509.742Z" fill="black" style="mix-blend-mode:overlay"/>
<path d="M56.0359 442.519C57.7681 441.986 58.7404 440.151 58.2074 438.419C57.6753 436.69 58.6494 434.851 60.379 434.319C62.1085 433.788 63.9485 434.763 64.4806 436.492C64.8874 437.814 64.4175 439.257 63.3113 440.084C61.0788 441.754 60.1296 444.665 60.9494 447.329L61.1026 447.827C61.6355 449.559 63.472 450.532 65.2042 450C66.9364 449.468 67.9087 447.632 67.3758 445.9L67.2226 445.402C67.2156 445.38 67.2244 445.354 67.2439 445.339C70.5629 442.858 71.9733 438.528 70.7538 434.565C69.1574 429.377 63.6374 426.453 58.4489 428.047C53.2603 429.641 50.3378 435.158 51.9342 440.346C52.4672 442.078 54.3036 443.051 56.0359 442.519Z" fill="black" style="mix-blend-mode:overlay"/>
<path d="M68.0982 459.409C69.8305 458.877 70.8027 457.041 70.2697 455.309C69.7366 453.577 67.9002 452.604 66.1679 453.136C64.4356 453.668 63.4634 455.504 63.9964 457.236C64.5295 458.968 66.3659 459.941 68.0982 459.409Z" fill="black" style="mix-blend-mode:overlay"/>
</g>
<defs>
<clipPath id="clip0_10329_237115">
<rect width="162" height="162" fill="white" transform="translate(137.977 160.199) rotate(14.6333)"/>
</clipPath>
<clipPath id="clip1_10329_237115">
<rect width="104.092" height="104" fill="white" transform="translate(308.621)"/>
</clipPath>
<clipPath id="clip2_10329_237115">
<rect width="112" height="112" fill="white" transform="matrix(0.955917 -0.293637 0.29411 0.955772 1.05469 431.945)"/>
</clipPath>
</defs>
</svg>
